<svg width="21" height="21" viewBox="0 0 21 21" fill="none" xmlns="http://www.w3.org/2000/svg">
<g clip-path="url(#clip0_0_5358)">
<path d="M4.0506 12.2878H7.89669V11.4762C7.89669 10.0911 6.77385 8.96826 5.38876 8.96826H2.5078C1.12271 8.96826 -0.00012207 10.0911 -0.00012207 11.4762V15.3922H4.0506V12.2878Z" fill="white"/>
<path d="M3.94602 7.70076C5.54937 7.70076 6.84913 6.40099 6.84913 4.79765C6.84913 3.1943 5.54937 1.89453 3.94602 1.89453C2.34268 1.89453 1.04291 3.1943 1.04291 4.79765C1.04291 6.40099 2.34268 7.70076 3.94602 7.70076Z" fill="white"/>
<path d="M5.26166 13.498H7.34284V19.8542H5.26166V13.498Z" fill="white"/>
<path d="M14.7423 12.7825H13.9075V10.8168C13.9075 9.67641 12.9831 8.75195 11.8427 8.75195C11.3714 8.75195 10.9893 9.13407 10.9893 9.60544V11.6321L10.0229 12.7825L8.55072 13.4984V19.8546L9.90692 20.6616H14.7423C15.8709 20.6616 16.7858 19.7467 16.7858 18.6182V14.826C16.7858 13.6974 15.8709 12.7825 14.7423 12.7825Z" fill="white"/>
<path d="M9.72455 2.72943C10.8182 3.42827 11.7498 4.35986 12.4486 5.45349C13.1475 4.35982 14.079 3.42827 15.1727 2.72943C14.0791 2.03059 13.1475 1.09904 12.4486 0.00537109C11.7498 1.09904 10.8182 2.03059 9.72455 2.72943Z" fill="white"/>
<path d="M20.6688 7.09515C19.5752 6.39631 18.6436 5.46472 17.9447 4.37109C17.2459 5.46476 16.3143 6.39635 15.2206 7.09515C16.3143 7.79399 17.2458 8.72554 17.9447 9.81921C18.6436 8.72554 19.5751 7.79399 20.6688 7.09515Z" fill="white"/>
</g>
<defs>
<clipPath id="clip0_0_5358">
<rect width="20.6671" height="20.6671" fill="white"/>
</clipPath>
</defs>
</svg>
