<svg width="21" height="21" viewBox="0 0 21 21" fill="none" xmlns="http://www.w3.org/2000/svg">
<g clip-path="url(#clip0_0_5368)">
<path d="M1.57618 3.80512C1.91057 3.80512 2.18166 3.53403 2.18166 3.19964V1.21096H4.17035C4.97285 1.18117 4.97224 0.0295071 4.17035 0H1.57618C1.2418 0 0.970703 0.271094 0.970703 0.605481V3.19964C0.970703 3.53403 1.24176 3.80512 1.57618 3.80512Z" fill="white"/>
<path d="M4.17031 19.4561H2.18166V17.4674C2.15188 16.6649 1.00021 16.6655 0.970703 17.4674V20.0615C0.970703 20.3959 1.2418 20.667 1.57618 20.667H4.17035C4.97281 20.6372 4.9722 19.4856 4.17031 19.4561Z" fill="white"/>
<path d="M16.4925 1.21096H18.4812V3.19964C18.511 4.00215 19.6626 4.00154 19.6921 3.19964V0.605481C19.6921 0.271094 19.421 0 19.0866 0H16.4925C15.69 0.0297897 15.6906 1.18145 16.4925 1.21096Z" fill="white"/>
<path d="M19.0867 16.8618C18.7523 16.8618 18.4812 17.1329 18.4812 17.4673V19.456H16.4925C15.69 19.4858 15.6906 20.6374 16.4925 20.6669H19.0867C19.4211 20.6669 19.6922 20.3958 19.6922 20.0615V17.4673C19.6922 17.1329 19.4211 16.8618 19.0867 16.8618Z" fill="white"/>
<path d="M7.6543 7.45814H13.007C11.7429 5.6262 8.91769 5.62697 7.6543 7.45814Z" fill="white"/>
<path d="M3.24414 4.17207V7.45782H6.26125C7.85068 4.01998 12.8207 4.02191 14.4088 7.45782H17.4259V4.17207C17.4259 3.0994 16.552 2.26953 15.5233 2.26953H5.14672C4.11781 2.26953 3.24414 3.09965 3.24414 4.17207Z" fill="white"/>
<path d="M17.4259 16.4945V8.66899H14.7786C14.8135 8.89451 14.8318 9.12544 14.8318 9.36061V12.6033C14.8318 14.3676 13.3964 15.8029 11.6321 15.8029C11.2977 15.8029 11.0266 15.5318 11.0266 15.1974C11.0266 14.8631 11.2977 14.592 11.6321 14.592C12.7287 14.592 13.6208 13.6998 13.6208 12.6033V9.36057C13.6208 9.1233 13.5949 8.89209 13.5469 8.66895H12.1069C12.191 8.88349 12.2376 9.1166 12.2376 9.36057C12.2376 9.69495 11.9665 9.96605 11.6321 9.96605C11.2978 9.96605 11.0267 9.69495 11.0267 9.36057C10.9921 8.44447 9.67802 8.44447 9.64343 9.36057V12.6032C9.61364 13.4057 8.46197 13.4051 8.43247 12.6032V9.36057C8.43247 9.1166 8.47913 8.88349 8.56317 8.66895H7.12313C7.07514 8.89204 7.04927 9.1233 7.04927 9.36057C7.01956 10.1629 5.86785 10.1626 5.8383 9.36057C5.8383 9.12544 5.85655 8.89447 5.8915 8.66895H3.24414V16.4945C3.24414 17.5671 4.11797 18.397 5.14672 18.397H15.5233C16.5522 18.397 17.4259 17.5669 17.4259 16.4945ZM11.0266 11.9547C11.0564 11.1522 12.2081 11.1528 12.2376 11.9547V12.6032C12.2078 13.4057 11.0561 13.4051 11.0266 12.6032V11.9547ZM9.03791 15.8029C7.27362 15.8029 5.83826 14.3675 5.83826 12.6032V11.9547C5.86805 11.1522 7.01972 11.1528 7.04922 11.9547V12.6032C7.04922 13.6998 7.94134 14.5919 9.03791 14.5919C9.84001 14.6215 9.84013 15.7733 9.03791 15.8029Z" fill="white"/>
<path d="M2.03179 7.45801H0.605557C-0.196947 7.4878 -0.196341 8.63946 0.605557 8.66897H2.03179V7.45801Z" fill="white"/>
<path d="M20.0629 7.45801H18.6367V8.66897H20.0629C20.8655 8.63918 20.8648 7.48747 20.0629 7.45801Z" fill="white"/>
</g>
<defs>
<clipPath id="clip0_0_5368">
<rect width="20.6671" height="20.6671" fill="white"/>
</clipPath>
</defs>
</svg>
