<svg width="21" height="21" viewBox="0 0 21 21" fill="none" xmlns="http://www.w3.org/2000/svg">
<g clip-path="url(#clip0_0_5381)">
<path d="M12.5773 20.6669L12.1783 20.4458C11.7023 20.182 11.2835 19.8673 10.9335 19.5103C10.8152 19.3896 10.7035 19.2642 10.5979 19.1348H1.74414V19.456C1.74414 20.1248 2.28629 20.6669 2.9551 20.6669H12.5773Z" fill="white"/>
<path d="M17.4149 12.3164H12.1013C11.8932 13.0404 11.3216 13.612 10.5977 13.8201V15.894C10.5977 17.0024 11.0249 18.0487 11.8007 18.8401C12.0687 19.1135 12.394 19.3571 12.7676 19.5641L14.7582 20.667L16.7487 19.5641C17.1223 19.3571 17.4476 19.1136 17.7156 18.8402C18.4914 18.0487 18.9186 17.0024 18.9186 15.894V13.8201C18.1947 13.612 17.623 13.0404 17.4149 12.3164ZM15.3636 16.5979H14.1527V15.3869H15.3636V16.5979Z" fill="white"/>
<path d="M9.85181 17.924C9.54564 17.2378 9.38422 16.489 9.38422 15.7166V12.6942H9.9897C10.5327 12.6942 10.9728 12.254 10.9728 11.7111V11.1056H14.1502V1.21096C14.1502 0.542148 13.608 0 12.9392 0H2.9551C2.28629 0 1.74414 0.542148 1.74414 1.21096V17.924H9.85181ZM7.11476 1.55782H8.32572V2.76878H7.11476V1.55782ZM3.21683 4.30699H12.6775V5.51795H3.21683V4.30699ZM3.21683 7.03036H12.6775V8.24132H3.21683V7.03036ZM3.21683 9.75381H7.72019V10.9648H3.21683V9.75381ZM3.21683 12.4772H7.72019V13.6881H3.21683V12.4772ZM3.21683 15.2006H7.72019V16.4116H3.21683V15.2006Z" fill="white"/>
</g>
<defs>
<clipPath id="clip0_0_5381">
<rect width="20.6671" height="20.6671" fill="white"/>
</clipPath>
</defs>
</svg>
