<svg width="21" height="21" viewBox="0 0 21 21" fill="none" xmlns="http://www.w3.org/2000/svg">
<g clip-path="url(#clip0_0_5349)">
<path d="M3.02173 14.4863V20.6282H17.5224V14.4863L10.8763 15.6947V17.003H9.66787V15.6947L3.02173 14.4863Z" fill="white"/>
<path d="M13.293 8.17089L12.959 8.00389C12.9045 7.97663 11.6077 7.33594 10.2721 7.33594C8.93639 7.33594 7.63963 7.97663 7.58509 8.00389L7.25109 8.17089V9.75272H3.02173V13.2581L10.2721 14.5764L17.5224 13.2581V9.75272H13.293V8.17089ZM12.0846 9.75268H8.45948V8.94032C8.86445 8.78008 9.57841 8.54429 10.2721 8.54429C10.9659 8.54429 11.68 8.7802 12.0846 8.94028V9.75268Z" fill="white"/>
<path d="M1.24642 8.66053L3.26237 8.02939L5.27837 8.66053L5.30109 6.54822L6.5243 4.82595L4.52236 4.15159L3.26237 2.45605L2.00243 4.15159L0.000488281 4.82595L1.2237 6.54822L1.24642 8.66053Z" fill="white"/>
<path d="M10.2719 0.0390625L9.01195 1.73459L7.01001 2.40896L8.23326 4.13123L8.25598 6.24354L10.2719 5.6124L12.2879 6.24354L12.3106 4.13119L13.5338 2.40896L11.5319 1.73459L10.2719 0.0390625Z" fill="white"/>
<path d="M17.4067 2.45605L16.1467 4.15159L14.1448 4.82595L15.368 6.54818L15.3907 8.66053L17.4067 8.02939L19.4226 8.66053L19.4453 6.54822L20.6686 4.82595L18.6666 4.15159L17.4067 2.45605Z" fill="white"/>
</g>
<defs>
<clipPath id="clip0_0_5349">
<rect width="20.6671" height="20.6671" fill="white"/>
</clipPath>
</defs>
</svg>
