<svg width="170" height="40" viewBox="0 0 170 40" fill="none" xmlns="http://www.w3.org/2000/svg">
<mask id="mask0_0_5180" style="mask-type:luminance" maskUnits="userSpaceOnUse" x="0" y="0" width="40" height="32">
<path d="M39.2592 0C39.2592 0 39.3741 6.4784 33.5667 9.24042C32.1313 9.92365 30.5504 10.2438 28.9602 10.2438H19.3016C19.3016 10.2438 14.5726 10.5042 11.7126 14.7139C11.7126 14.7139 3.29326 20.0158 3.44798 31.4499C3.44798 31.4499 -3.63399 21.9337 2.50127 10.2928C3.92134 7.59822 5.99553 5.30344 8.55993 3.66124C8.60895 3.6306 8.65797 3.59843 8.70699 3.5678C12.4525 1.20561 16.8092 0 21.2364 0H39.2592Z" fill="white"/>
</mask>
<g mask="url(#mask0_0_5180)">
<path d="M-3.63403 25.814L4.8818 31.4498H-3.63403V25.814Z" fill="#5FC3B9"/>
<path d="M-3.63403 25.356L5.57575 31.4499H4.8818L-3.63403 25.814V25.356Z" fill="#5FC3B9"/>
<path d="M-3.63403 24.8965L6.26817 31.45H5.57575L-3.63403 25.3561V24.8965Z" fill="#5EC2B9"/>
<path d="M-3.63403 24.4385L6.96212 31.45H6.26817L-3.63403 24.8965V24.4385Z" fill="#5DC1B9"/>
<path d="M-3.63403 23.979L7.65454 31.4501H6.96212L-3.63403 24.4386V23.979Z" fill="#5CC0B9"/>
<path d="M-3.63403 23.521L8.34849 31.4501H7.65454L-3.63403 23.979V23.521Z" fill="#5CBFB9"/>
<path d="M-3.63403 23.061L9.04244 31.4497H8.34849L-3.63403 23.5206V23.061Z" fill="#5BBEB9"/>
<path d="M-3.63403 22.603L9.73486 31.4497H9.04244L-3.63403 23.0611V22.603Z" fill="#5ABDB9"/>
<path d="M-3.63403 22.145L10.4288 31.4498H9.73486L-3.63403 22.6031V22.145Z" fill="#59BCB9"/>
<path d="M-3.63403 21.6855L11.1212 31.4499H10.4288L-3.63403 22.1451V21.6855Z" fill="#58BBB9"/>
<path d="M-3.63403 21.2275L11.8152 31.4499H11.1212L-3.63403 21.6856V21.2275Z" fill="#57BAB9"/>
<path d="M-3.63403 20.7681L12.5076 31.45H11.8152L-3.63403 21.2276V20.7681Z" fill="#56B9B9"/>
<path d="M-3.63403 20.3101L13.2015 31.45H12.5076L-3.63403 20.7681V20.3101Z" fill="#55B8B9"/>
<path d="M-3.63403 19.8506L13.8955 31.4501H13.2015L-3.63403 20.3102V19.8506Z" fill="#55B7B9"/>
<path d="M-3.63403 19.3921L14.5879 31.4497H13.8955L-3.63403 19.8501V19.3921Z" fill="#54B6B9"/>
<path d="M-3.63403 18.9326L15.2819 31.4498H14.5879L-3.63403 19.3922V18.9326Z" fill="#53B5B9"/>
<path d="M-3.63403 18.4746L15.9743 31.4498H15.2819L-3.63403 18.9326V18.4746Z" fill="#52B4B9"/>
<path d="M-3.63403 18.4014L-3.45633 18.1333L16.6682 31.4501H15.9743L-3.63403 18.4749V18.4014Z" fill="#51B3B9"/>
<path d="M-3.4563 18.1331L-3.24643 17.8145L17.3622 31.4499H16.6683L-3.4563 18.1331Z" fill="#50B2B9"/>
<path d="M-3.24652 17.8142L-3.03512 17.4956L18.0546 31.4497H17.3621L-3.24652 17.8142Z" fill="#4FB1B9"/>
<path d="M-3.03516 17.4959L-2.82375 17.1758L18.7485 31.45H18.0545L-3.03516 17.4959Z" fill="#4EB0B9"/>
<path d="M-2.82349 17.1756L-2.61208 16.8569L19.4411 31.4498H18.7487L-2.82349 17.1756Z" fill="#4EAFBA"/>
<path d="M-2.61255 16.8572L-2.40115 16.5386L20.1346 31.4501H19.4407L-2.61255 16.8572Z" fill="#4DAEBA"/>
<path d="M-2.40082 16.5384L-2.19095 16.2183L20.8274 31.4499H20.135L-2.40082 16.5384Z" fill="#4CADBA"/>
<path d="M-2.19104 16.218L-1.97964 15.8994L21.5212 31.4497H20.8273L-2.19104 16.218Z" fill="#4BACBA"/>
<path d="M-1.97974 15.8997L-1.76833 15.5811L22.2151 31.45H21.5211L-1.97974 15.8997Z" fill="#4AABBA"/>
<path d="M-1.76837 15.5808L-1.55697 15.2622L22.9075 31.4498H22.2151L-1.76837 15.5808Z" fill="#49AABA"/>
<path d="M-1.55664 15.2625L-1.34524 14.9424L23.3628 31.2924L23.2586 31.4501H22.9078L-1.55664 15.2625Z" fill="#48A9BA"/>
<path d="M-1.13438 14.6245L-1.3457 14.9438L23.3639 31.2926L23.5752 30.9732L-1.13438 14.6245Z" fill="#48A8BA"/>
<path d="M-0.923443 14.3041L-1.13477 14.6235L23.5749 30.9723L23.7862 30.6529L-0.923443 14.3041Z" fill="#47A7BA"/>
<path d="M-0.712506 13.9858L-0.923828 14.3052L23.7858 30.6539L23.9971 30.3345L-0.712506 13.9858Z" fill="#46A6BA"/>
<path d="M-0.501568 13.665L-0.712891 13.9844L23.9967 30.3331L24.2081 30.0137L-0.501568 13.665Z" fill="#45A5BA"/>
<path d="M-0.290631 13.3466L-0.501953 13.666L24.2077 30.0148L24.419 29.6954L-0.290631 13.3466Z" fill="#44A4BA"/>
<path d="M-0.0781674 13.0268L-0.28949 13.3462L24.4201 29.6949L24.6315 29.3755L-0.0781674 13.0268Z" fill="#43A3BA"/>
<path d="M0.130451 12.7089L-0.0808716 13.0283L24.6288 29.3771L24.8401 29.0577L0.130451 12.7089Z" fill="#42A2BA"/>
<path d="M0.342914 12.3906L0.131592 12.71L24.8412 29.0587L25.0525 28.7393L0.342914 12.3906Z" fill="#41A1BA"/>
<path d="M0.553852 12.0703L0.342529 12.3896L25.0522 28.7384L25.2635 28.419L0.553852 12.0703Z" fill="#41A0BA"/>
<path d="M0.766376 11.7519L0.555054 12.0713L25.2647 28.42L25.476 28.1006L0.766376 11.7519Z" fill="#409FBA"/>
<path d="M0.976154 11.4311L0.764832 11.7505L25.4745 28.0992L25.6858 27.7798L0.976154 11.4311Z" fill="#3F9EBA"/>
<path d="M1.18746 11.1142L0.976135 11.4336L25.6858 27.7823L25.8971 27.4629L1.18746 11.1142Z" fill="#3E9DBA"/>
<path d="M1.3984 10.7958L1.18707 11.1152L25.8967 27.464L26.108 27.1446L1.3984 10.7958Z" fill="#3D9BBA"/>
<path d="M1.60976 10.4746L1.39844 10.7939L26.1081 27.1427L26.3194 26.8233L1.60976 10.4746Z" fill="#3C9ABA"/>
<path d="M1.8207 10.1562L1.60938 10.4756L26.319 26.8243L26.5303 26.5049L1.8207 10.1562Z" fill="#3B99BA"/>
<path d="M2.03163 9.83637L1.82031 10.1558L26.5299 26.5045L26.7413 26.1851L2.03163 9.83637Z" fill="#3A98BA"/>
<path d="M2.2433 9.51947L2.03198 9.83887L26.7416 26.1876L26.9529 25.8682L2.2433 9.51947Z" fill="#3A97BA"/>
<path d="M2.45272 9.19867L2.24139 9.51807L26.951 25.8668L27.1623 25.5474L2.45272 9.19867Z" fill="#3996BA"/>
<path d="M2.66518 8.87982L2.45386 9.19922L27.1635 25.548L27.3748 25.2286L2.66518 8.87982Z" fill="#3895BA"/>
<path d="M2.87612 8.56147L2.66479 8.88086L27.3744 25.2296L27.5857 24.9102L2.87612 8.56147Z" fill="#3794BA"/>
<path d="M3.08864 8.24164L2.87732 8.56104L27.5869 24.9098L27.7983 24.5904L3.08864 8.24164Z" fill="#3693BA"/>
<path d="M3.29726 7.92377L3.08594 8.24316L27.7956 24.5919L28.0069 24.2725L3.29726 7.92377Z" fill="#3592BA"/>
<path d="M3.50972 7.60346L3.2984 7.92285L28.008 24.2716L28.2193 23.9522L3.50972 7.60346Z" fill="#3491BA"/>
<path d="M3.72066 7.2851L3.50934 7.60449L28.219 23.9532L28.4303 23.6338L3.72066 7.2851Z" fill="#3390BA"/>
<path d="M3.93203 6.9643L3.7207 7.28369L28.4303 23.6324L28.6416 23.313L3.93203 6.9643Z" fill="#338FBA"/>
<path d="M4.14296 6.64594L3.93164 6.96533L28.6413 23.3141L28.8526 22.9947L4.14296 6.64594Z" fill="#328EBA"/>
<path d="M4.35506 6.32758L4.14374 6.64697L28.8534 22.9957L29.0647 22.6763L4.35506 6.32758Z" fill="#318DBA"/>
<path d="M4.5652 6.00873L4.35388 6.32812L29.0635 22.6769L29.2748 22.3575L4.5652 6.00873Z" fill="#308CBA"/>
<path d="M4.77498 5.68988L4.56366 6.00928L29.2733 22.358L29.4846 22.0386L4.77498 5.68988Z" fill="#2F8BBA"/>
<path d="M4.98745 5.36957L4.77612 5.68896L29.4857 22.0377L29.6971 21.7183L4.98745 5.36957Z" fill="#2E8ABA"/>
<path d="M5.19838 5.05121L4.98706 5.37061L29.6967 21.7193L29.908 21.4L5.19838 5.05121Z" fill="#2D89BA"/>
<path d="M5.40932 4.73188L5.198 5.05127L29.9076 21.4L30.1189 21.0806L5.40932 4.73188Z" fill="#2D88BB"/>
<path d="M5.61953 4.41352L5.4082 4.73291L30.1178 21.0817L30.3291 20.7623L5.61953 4.41352Z" fill="#2C87BB"/>
<path d="M5.83199 4.09516L5.62067 4.41455L30.3303 20.7633L30.5416 20.4439L5.83199 4.09516Z" fill="#2B86BB"/>
<path d="M6.04293 3.77484L5.8316 4.09424L30.5412 20.443L30.7525 20.1236L6.04293 3.77484Z" fill="#2A85BB"/>
<path d="M6.25386 3.45551L6.04254 3.7749L30.7522 20.1236L30.9635 19.8042L6.25386 3.45551Z" fill="#2984BB"/>
<path d="M6.4648 3.13568L6.25348 3.45508L30.9631 19.8038L31.1744 19.4844L6.4648 3.13568Z" fill="#2883BB"/>
<path d="M6.67653 2.81879L6.46521 3.13818L31.1748 19.4869L31.3862 19.1675L6.67653 2.81879Z" fill="#2782BB"/>
<path d="M6.88747 2.49994L6.67615 2.81934L31.3858 19.1681L31.5971 18.8487L6.88747 2.49994Z" fill="#2681BB"/>
<path d="M7.09877 2.17963L6.88745 2.49902L31.5971 18.8478L31.8084 18.5284L7.09877 2.17963Z" fill="#2680BB"/>
<path d="M7.30971 1.86078L7.09839 2.18018L31.808 18.5289L32.0193 18.2095L7.30971 1.86078Z" fill="#257FBB"/>
<path d="M7.52028 1.54096L7.30896 1.86035L32.0186 18.2091L32.2299 17.8897L7.52028 1.54096Z" fill="#247EBB"/>
<path d="M7.73085 1.22309L7.51953 1.54248L32.2292 17.8912L32.4405 17.5718L7.73085 1.22309Z" fill="#237DBB"/>
<path d="M7.94179 0.904727L7.73047 1.22412L32.4401 17.5729L32.6514 17.2535L7.94179 0.904727Z" fill="#227CBB"/>
<path d="M8.15389 0.584414L7.94257 0.903809L32.6522 17.2525L32.8635 16.9332L8.15389 0.584414Z" fill="#217BBB"/>
<path d="M8.36483 0.266055L8.1535 0.585449L32.8631 16.9342L33.0744 16.6148L8.36483 0.266055Z" fill="#207ABB"/>
<path d="M8.36523 0.266551L8.5414 0H8.6563L33.2847 16.2964L33.0732 16.615L8.36523 0.266551Z" fill="#1F79BB"/>
<path d="M9.3502 0L33.496 15.9762L33.2846 16.2964L8.65625 0H9.3502Z" fill="#1F78BB"/>
<path d="M10.0428 0L33.7076 15.6575L33.4961 15.9762L9.35034 0H10.0428Z" fill="#1E77BB"/>
<path d="M10.7365 0L33.9187 15.3389L33.7073 15.6575L10.0425 0H10.7365Z" fill="#1D76BB"/>
<path d="M11.4291 0L34.1303 15.0203L33.9189 15.3389L10.7367 0H11.4291Z" fill="#1C75BB"/>
<path d="M39.3742 7.09423L34.1305 15.0203L11.4293 0H39.3742V7.09423Z" fill="#1C75BB"/>
</g>
<mask id="mask1_0_5180" style="mask-type:luminance" maskUnits="userSpaceOnUse" x="3" y="14" width="37" height="26">
<path d="M19.882 25.0558C19.882 25.0558 19.6124 16.4281 29.3829 14.8166H39.6742V20.794C39.6742 20.794 39.3111 34.4632 25.3815 38.9854C11.452 43.5075 3.44779 31.4484 3.44779 31.4484C3.44779 31.4484 1.83623 21.0009 11.7124 14.7124C11.7124 14.7124 8.64552 19.806 11.5561 24.6912C14.4667 29.5764 19.2478 29.5764 19.2478 29.5764C19.2478 29.5764 24.7044 30.4082 28.0317 25.1063L19.882 25.0543V25.0558Z" fill="white"/>
</mask>
<g mask="url(#mask1_0_5180)">
<path d="M31.8877 43.5077L39.6743 26.9893V43.5077H31.8877Z" fill="#49B0D9"/>
<path d="M30.7713 43.5075L39.6747 24.6191V26.989L31.8881 43.5075H30.7713Z" fill="#49B0D9"/>
<path d="M29.653 43.5073L39.6746 22.2476V24.6189L30.7712 43.5073H29.653Z" fill="#47AED8"/>
<path d="M28.5346 43.5076L39.6746 19.8765V22.2478L29.6529 43.5076H28.5346Z" fill="#45ABD7"/>
<path d="M27.4178 43.5074L39.6745 17.5049V19.8763L28.5345 43.5074H27.4178Z" fill="#44A9D5"/>
<path d="M26.2994 43.5076L39.6745 15.1338V17.5052L27.4177 43.5076H26.2994Z" fill="#42A7D4"/>
<path d="M25.1826 43.5075L38.7553 14.7139H39.6744V15.1336L26.2994 43.5075H25.1826Z" fill="#40A4D3"/>
<path d="M24.0647 43.5075L37.6373 14.7139H38.7556L25.183 43.5075H24.0647Z" fill="#3EA2D2"/>
<path d="M22.9463 43.5075L36.5205 14.7139H37.6372L24.0646 43.5075H22.9463Z" fill="#3DA0D1"/>
<path d="M21.8295 43.5075L35.4022 14.7139H36.5204L22.9463 43.5075H21.8295Z" fill="#3B9ED0"/>
<path d="M20.7112 43.5075L34.2838 14.7139H35.4021L21.8295 43.5075H20.7112Z" fill="#3A9CCF"/>
<path d="M19.5928 43.5075L33.1669 14.7139H34.2837L20.7111 43.5075H19.5928Z" fill="#389ACE"/>
<path d="M18.476 43.5075L32.0486 14.7139H33.1669L19.5928 43.5075H18.476Z" fill="#3798CD"/>
<path d="M17.358 43.5075L30.9322 14.7139H32.049L18.4763 43.5075H17.358Z" fill="#3696CC"/>
<path d="M16.2412 43.5075L29.8138 14.7139H30.9321L17.358 43.5075H16.2412Z" fill="#3495CB"/>
<path d="M15.1229 43.5075L28.6955 14.7139H29.8138L16.2412 43.5075H15.1229Z" fill="#3393CA"/>
<path d="M14.0045 43.5075L27.5787 14.7139H28.6954L15.1228 43.5075H14.0045Z" fill="#3291C9"/>
<path d="M12.8877 43.5075L26.4603 14.7139H27.5786L14.0045 43.5075H12.8877Z" fill="#3090C9"/>
<path d="M11.7693 43.5075L25.3435 14.7139H26.4603L12.8876 43.5075H11.7693Z" fill="#2F8EC8"/>
<path d="M10.6557 43.5075L10.6526 43.5059L24.2252 14.7139H25.3435L11.7693 43.5075H10.6557Z" fill="#2E8DC7"/>
<path d="M10.6526 43.5059L9.7381 43.0755L23.107 14.7139H24.2253L10.6526 43.5059Z" fill="#2D8BC6"/>
<path d="M9.73821 43.0755L8.82367 42.6435L21.9904 14.7139H23.1071L9.73821 43.0755Z" fill="#2C8AC6"/>
<path d="M8.82372 42.6435L7.90918 42.213L20.8721 14.7139H21.9904L8.82372 42.6435Z" fill="#2B89C5"/>
<path d="M7.9093 42.213L6.99475 41.7825L19.7555 14.7139H20.8722L7.9093 42.213Z" fill="#2A87C4"/>
<path d="M6.99444 41.7825L6.0799 41.3505L18.6369 14.7139H19.7552L6.99444 41.7825Z" fill="#2986C4"/>
<path d="M6.08001 41.3505L5.16547 40.9201L17.5187 14.7139H18.637L6.08001 41.3505Z" fill="#2885C3"/>
<path d="M5.16552 40.9201L4.25098 40.4881L16.402 14.7139H17.5188L5.16552 40.9201Z" fill="#2784C3"/>
<path d="M4.25109 40.4881L3.33655 40.0576L15.2838 14.7139H16.4021L4.25109 40.4881Z" fill="#2683C2"/>
<path d="M3.33624 40.0576L2.42169 39.6272L14.1668 14.7139H15.2835L3.33624 40.0576Z" fill="#2682C1"/>
<path d="M2.42149 39.6272L1.8363 39.3499V38.4981L13.0483 14.7139H14.1666L2.42149 39.6272Z" fill="#2581C1"/>
<path d="M1.8363 36.1268L11.93 14.7139H13.0483L1.8363 38.4981V36.1268Z" fill="#2480C0"/>
<path d="M1.8363 33.7554L10.8132 14.7139H11.93L1.8363 36.1268V33.7554Z" fill="#247FC0"/>
<path d="M1.8363 31.3855L9.69495 14.7139H10.8132L1.8363 33.7554V31.3855Z" fill="#237EC0"/>
<path d="M1.8363 29.0142L8.57666 14.7139H9.69495L1.8363 31.3855V29.0142Z" fill="#227DBF"/>
<path d="M1.8363 26.6428L7.45991 14.7139H8.57666L1.8363 29.0142V26.6428Z" fill="#227DBF"/>
<path d="M1.8363 24.2714L6.34162 14.7139H7.45991L1.8363 26.6428V24.2714Z" fill="#217CBE"/>
<path d="M1.8363 21.9L5.22487 14.7139H6.34162L1.8363 24.2714V21.9Z" fill="#217BBE"/>
<path d="M1.8363 19.5302L4.10658 14.7139H5.22487L1.8363 21.9V19.5302Z" fill="#207ABE"/>
<path d="M1.8363 17.1588L2.98829 14.7139H4.10658L1.8363 19.5302V17.1588Z" fill="#207ABD"/>
</g>
<path d="M45.7158 12.7696V10.568H56.5958V12.7696H52.3462V29H49.9654V12.7696H45.7158ZM69.0492 20.2704L62.2908 25.5952L60.9852 24.0848L66.2076 19.912C65.5249 18.9904 64.5777 18.5296 63.366 18.5296C62.4785 18.5296 61.6593 18.7941 60.9084 19.3232C60.1745 19.8523 59.654 20.4155 59.3468 21.0128C59.0396 21.5931 58.886 22.216 58.886 22.8816C58.886 24.2128 59.3724 25.2624 60.3452 26.0304C61.318 26.7813 62.2652 27.1568 63.1868 27.1568C64.3985 27.1568 65.2518 26.8837 65.7468 26.3376C66.2588 25.7744 66.5489 25.4501 66.6172 25.3648C66.7025 25.2624 66.7964 25.1259 66.8988 24.9552L68.6908 26.0816C68.1788 27.0373 67.4278 27.7968 66.438 28.36C65.4652 28.9232 64.3814 29.2048 63.1868 29.2048C62.3846 29.2048 61.4801 29.0341 60.4732 28.6928C59.4833 28.3515 58.6214 27.6347 57.8876 26.5424C57.1537 25.4501 56.7868 24.2299 56.7868 22.8816C56.7868 22.3696 56.838 21.8747 56.9404 21.3968C57.0428 20.9019 57.2817 20.2619 57.6572 19.4768C58.0326 18.6917 58.7238 17.9835 59.7308 17.352C60.7377 16.7205 61.8726 16.4048 63.1356 16.4048C64.4838 16.4048 65.6785 16.7547 66.7196 17.4544C67.7777 18.1371 68.5542 19.0757 69.0492 20.2704ZM76.8744 16.4048V18.6064C76.5842 18.6064 76.3282 18.6149 76.1064 18.632C75.9016 18.6491 75.6541 18.7003 75.364 18.7856C75.0909 18.8709 74.8946 18.9392 74.7752 18.9904C74.6557 19.0416 74.3741 19.2037 73.9304 19.4768C73.4866 19.7499 73.0941 20.1936 72.7528 20.808C72.4114 21.4053 72.2408 22.0624 72.2408 22.7792C72.2408 23.7349 72.5053 24.5541 73.0344 25.2368C73.5805 25.9024 74.1778 26.3803 74.8264 26.6704C75.492 26.9605 76.1746 27.1056 76.8744 27.1056V29.1792H76.516C76.3794 29.1792 76.2258 29.1707 76.0552 29.1536C75.8845 29.1536 75.3298 29.0683 74.3912 28.8976C73.4525 28.7269 72.4797 28.0443 71.4728 26.8496C70.4658 25.6549 69.9624 24.3152 69.9624 22.8304C69.9624 22.1648 70.0818 21.4821 70.3208 20.7824C70.5768 20.0827 70.9949 19.3829 71.5752 18.6832C72.1554 17.9664 72.9149 17.4117 73.8536 17.0192C74.8093 16.6096 75.8162 16.4048 76.8744 16.4048ZM78.55 29V10.568H80.7516V17.8384C81.4684 17.2069 82.1681 16.8059 82.8508 16.6352C83.5505 16.4475 84.1649 16.3536 84.694 16.3536C86.1788 16.3536 87.4332 16.8656 88.4572 17.8896C89.4982 18.8965 90.0188 20.1509 90.0188 21.6528V29H87.8172V21.7808C87.8172 20.8592 87.5014 20.0997 86.87 19.5024C86.2385 18.9051 85.4534 18.6064 84.5148 18.6064C84.2417 18.6064 84.0284 18.6149 83.8748 18.632C83.7382 18.6491 83.4054 18.7429 82.8764 18.9136C82.3644 19.0843 81.878 19.4512 81.4172 20.0144C80.9734 20.5605 80.7516 21.1664 80.7516 21.832V29H78.55ZM104.846 15.7648C103.753 14.7749 102.567 14.28 101.287 14.28C99.8708 14.28 98.625 14.8261 97.5498 15.9184C96.4916 16.9936 95.9626 18.2565 95.9626 19.7072C95.9626 21.1408 96.5087 22.4123 97.601 23.5216C98.6932 24.6139 99.9647 25.16 101.415 25.16C102.798 25.16 103.788 24.8528 104.385 24.2384C104.999 23.624 105.417 23.1461 105.639 22.8048L106.203 21.576L100.468 21.6272V17.8896H110.811C110.879 18.2821 110.93 18.6405 110.964 18.9648C110.998 19.272 111.015 19.5536 111.015 19.8096C111.015 22.3696 110.034 24.5968 108.071 26.4912C106.126 28.3856 103.813 29.3328 101.134 29.3328C98.5055 29.3328 96.2527 28.4112 94.3754 26.568C92.498 24.7077 91.5594 22.4464 91.5594 19.784C91.5594 17.1216 92.5151 14.8517 94.4266 12.9744C96.338 11.08 98.6506 10.1328 101.364 10.1328C102.269 10.1328 103.105 10.2352 103.873 10.44C104.658 10.6448 105.341 10.9179 105.921 11.2592C106.501 11.6005 106.919 11.8907 107.175 12.1296C107.465 12.3515 107.832 12.7013 108.276 13.1792L104.846 15.7648ZM112.242 21.0128C112.242 19.5621 112.746 18.3589 113.753 17.4032C114.759 16.4475 116.031 15.9696 117.567 15.9696H117.9L118.514 16.0464V19.7584L118.207 19.7328C117.593 19.7328 117.098 19.8949 116.722 20.2192C116.347 20.5435 116.159 20.9957 116.159 21.576V29H112.242V21.0128ZM125.464 15.816C127.324 15.816 128.886 16.4731 130.149 17.7872C131.429 19.1013 132.069 20.7056 132.069 22.6C132.069 24.5115 131.437 26.1072 130.175 27.3872C128.912 28.6501 127.341 29.2816 125.464 29.2816C123.604 29.2816 122.034 28.6416 120.754 27.3616C119.491 26.0645 118.859 24.4688 118.859 22.5744C118.859 20.7141 119.499 19.1269 120.779 17.8128C122.059 16.4816 123.621 15.816 125.464 15.816ZM122.776 22.6C122.776 23.4021 123.032 24.0933 123.544 24.6736C124.056 25.2539 124.696 25.544 125.464 25.544C126.215 25.544 126.855 25.2539 127.384 24.6736C127.913 24.0933 128.178 23.3936 128.178 22.5744C128.178 21.7723 127.922 21.0981 127.41 20.552C126.898 19.9888 126.258 19.7072 125.49 19.7072C124.756 19.7072 124.116 19.9973 123.57 20.5776C123.041 21.1408 122.776 21.8149 122.776 22.6ZM133.267 22.1904C133.267 20.4667 133.916 18.9733 135.213 17.7104C136.527 16.4304 138.114 15.7904 139.974 15.7904C141.835 15.7904 143.396 16.4389 144.659 17.736C145.939 19.016 146.579 20.6032 146.579 22.4976C146.579 24.4091 145.956 26.0048 144.71 27.2848C143.464 28.5648 141.903 29.2048 140.026 29.2048C139.582 29.2048 138.959 29.1024 138.157 28.8976V25.1344L138.848 25.288L139.437 25.3136C140.461 25.3136 141.246 25.0747 141.792 24.5968C142.355 24.1019 142.637 23.4107 142.637 22.5232C142.637 21.7381 142.372 21.0811 141.843 20.552C141.331 20.0059 140.691 19.7328 139.923 19.7328C139.155 19.7328 138.507 19.9973 137.978 20.5264C137.448 21.0555 137.184 21.6955 137.184 22.4464V34.4272H133.267V22.1904ZM153.526 19.3488L152.988 19.2464L152.579 19.3488C152.442 19.4 152.289 19.5024 152.118 19.656C151.947 19.7925 151.862 19.9547 151.862 20.1424C151.862 20.3131 151.896 20.4667 151.964 20.6032L153.577 24.2128C153.782 24.6224 153.884 25.0747 153.884 25.5696C153.884 26.6619 153.449 27.5579 152.579 28.2576C151.708 28.9403 150.573 29.2816 149.174 29.2816L148.406 29.256L147.868 29.1024L147.92 25.7744L148.406 25.8512C148.713 25.8512 148.978 25.7744 149.2 25.6208C149.438 25.4501 149.558 25.2453 149.558 25.0064C149.558 24.8187 149.524 24.648 149.456 24.4944L147.843 20.9104L147.587 20.2192L147.536 19.528C147.536 18.4357 147.937 17.5653 148.739 16.9168C149.541 16.2512 150.599 15.9184 151.913 15.9184C152.237 15.9184 152.562 15.9184 152.886 15.9184C153.193 15.9696 153.415 16.0037 153.552 16.0208L153.526 19.3488ZM160.575 24.904L159.142 22.984L163.11 20.0912C162.598 19.6133 162.009 19.3744 161.343 19.3744C160.49 19.3744 159.748 19.6901 159.116 20.3216C158.485 20.9531 158.169 21.6955 158.169 22.5488C158.169 23.368 158.451 24.0763 159.014 24.6736C159.594 25.2709 160.302 25.5696 161.139 25.5696C162.111 25.5696 163.033 25.0576 163.903 24.0336L167.001 25.7744C166.625 26.3717 166.301 26.824 166.028 27.1312C165.755 27.4213 165.235 27.848 164.467 28.4112C163.699 28.9573 162.598 29.2304 161.164 29.2304C159.321 29.2304 157.759 28.5904 156.479 27.3104C155.199 26.0304 154.559 24.4603 154.559 22.6C154.559 20.7056 155.199 19.1184 156.479 17.8384C157.776 16.5584 159.389 15.9184 161.318 15.9184C162.7 15.9184 163.775 16.1829 164.543 16.712C165.328 17.2411 165.9 17.736 166.259 18.1968C166.549 18.5893 166.89 19.2123 167.283 20.0656L160.575 24.904Z" fill="white"/>
</svg>
