<svg width="26" height="35" viewBox="0 0 26 35" fill="none" xmlns="http://www.w3.org/2000/svg">
<path d="M22.7588 2.71502C22.7588 1.21776 21.5411 0 20.0438 0H5.24431C3.74706 0 2.5293 1.21776 2.5293 2.71502V3.72317H22.7588V2.71502Z" fill="white"/>
<path d="M2.5293 5.71973H22.7588V7.71939H2.5293V5.71973Z" fill="white"/>
<path d="M2.5293 31.3569C2.5293 32.8541 3.74706 34.0719 5.24431 34.0719H20.0438C21.5411 34.0719 22.7588 32.8541 22.7588 31.3569V27.6836H2.5293V31.3569ZM10.9472 29.4138H14.341C14.8919 29.4138 15.3391 29.8609 15.3391 30.4119C15.3391 30.9629 14.8919 31.4101 14.341 31.4101H10.9472C10.3962 31.4101 9.94901 30.9629 9.94901 30.4119C9.94901 29.8609 10.3962 29.4138 10.9472 29.4138Z" fill="white"/>
<path d="M24.2889 9.71484H0.99829C0.447301 9.71484 0.00012207 10.162 0.00012207 10.713V24.6874C0.00012207 25.2384 0.447301 25.6855 0.99829 25.6855H24.2889C24.8399 25.6855 25.287 25.2384 25.287 24.6874V10.713C25.287 10.162 24.8399 9.71484 24.2889 9.71484ZM9.02422 19.091C9.41418 19.4803 9.41418 20.1124 9.02422 20.5024C8.82925 20.6974 8.57372 20.7945 8.31819 20.7945C8.06266 20.7945 7.80713 20.6974 7.61215 20.5024L5.516 18.4062C5.12671 18.0163 5.12671 17.3841 5.516 16.9948L7.61215 14.8987C8.0021 14.5087 8.63427 14.5087 9.02422 14.8987C9.41418 15.2879 9.41418 15.9201 9.02422 16.3101L7.63344 17.7002L9.02422 19.091ZM14.5448 14.2891L12.6769 21.605C12.5486 22.134 11.9821 22.4656 11.4624 22.325C10.9287 22.1886 10.606 21.6449 10.7424 21.1113L12.6103 13.7954C12.7417 13.2697 13.289 12.9355 13.8247 13.0753C14.3584 13.2118 14.6812 13.7554 14.5448 14.2891ZM19.7712 18.4062L17.675 20.5024C17.48 20.6974 17.2245 20.7945 16.969 20.7945C16.7134 20.7945 16.4579 20.6974 16.2629 20.5024C15.8737 20.1124 15.8737 19.4803 16.2629 19.0903L17.6537 17.7002L16.2629 16.3101C15.8737 15.9201 15.8737 15.2879 16.2629 14.898C16.6529 14.5087 17.2851 14.5087 17.675 14.898L19.7712 16.9941C20.1604 17.3841 20.1604 18.0163 19.7712 18.4062Z" fill="white"/>
</svg>
